<!DOCTYPE svg PUBLIC "-//W3C//DTD SVG 1.1//EN" "http://www.w3.org/Graphics/SVG/1.1/DTD/svg11.dtd">
<svg version="1.1" style="position: absolute; width: 757px; height: 400px; top: 0px; left: 0px;"><g><path cs="100,100" d="M0.5,0.5 L756.5,0.5 L756.5,399.5 L0.5,399.5 Z" fill="#FFFFFF" stroke="#000000" fill-opacity="0" stroke-width="1" stroke-opacity="0"></path><path cs="100,100" d="M0.5,0.5 L672.5,0.5 L672.5,311.5 L0.5,311.5 L0.5,0.5 Z" fill="#FFFFFF" stroke="#000000" fill-opacity="0" stroke-width="1" stroke-opacity="0" transform="translate(64,53)"></path></g><g><g transform="translate(64,53)"><g><path cs="100,100" d="M56.5,0.5 L56.5,5.5" fill="none" stroke-width="1" stroke-opacity="0.3" stroke="#000000" transform="translate(0,311)"></path><path cs="100,100" d="M0.5,311.5 L0.5,311.5 L0.5,0.5" fill="none" stroke-width="1" stroke-opacity="0.05" stroke="#000000"></path></g><g><path cs="100,100" d="M168.5,0.5 L168.5,5.5" fill="none" stroke-width="1" stroke-opacity="0.3" stroke="#000000" transform="translate(0,311)"></path><path cs="100,100" d="M112.5,311.5 L112.5,311.5 L112.5,0.5" fill="none" stroke-width="1" stroke-opacity="0.05" stroke="#000000"></path></g><g><path cs="100,100" d="M280.5,0.5 L280.5,5.5" fill="none" stroke-width="1" stroke-opacity="0.3" stroke="#000000" transform="translate(0,311)"></path><path cs="100,100" d="M224.5,311.5 L224.5,311.5 L224.5,0.5" fill="none" stroke-width="1" stroke-opacity="0.05" stroke="#000000"></path></g><g><path cs="100,100" d="M392.5,0.5 L392.5,5.5" fill="none" stroke-width="1" stroke-opacity="0.3" stroke="#000000" transform="translate(0,311)"></path><path cs="100,100" d="M336.5,311.5 L336.5,311.5 L336.5,0.5" fill="none" stroke-width="1" stroke-opacity="0.05" stroke="#000000"></path></g><g><path cs="100,100" d="M504.5,0.5 L504.5,5.5" fill="none" stroke-width="1" stroke-opacity="0.3" stroke="#000000" transform="translate(0,311)"></path><path cs="100,100" d="M448.5,311.5 L448.5,311.5 L448.5,0.5" fill="none" stroke-width="1" stroke-opacity="0.05" stroke="#000000"></path></g><g><path cs="100,100" d="M616.5,0.5 L616.5,5.5" fill="none" stroke-width="1" stroke-opacity="0.3" stroke="#000000" transform="translate(0,311)"></path><path cs="100,100" d="M560.5,311.5 L560.5,311.5 L560.5,0.5" fill="none" stroke-width="1" stroke-opacity="0.05" stroke="#000000"></path></g><g><path cs="100,100" d="M672.5,311.5 L672.5,311.5 L672.5,0.5" fill="none" stroke-width="1" stroke-opacity="0.05" stroke="#000000"></path></g></g><g transform="translate(64,53)" visibility="visible"><g><path cs="100,100" d="M0.5,311.5 L6.5,311.5" fill="none" stroke-width="1" stroke-opacity="0.3" stroke="#000000" transform="translate(-6,0)"></path><path cs="100,100" d="M0.5,311.5 L0.5,311.5 L672.5,311.5" fill="none" stroke-width="1" stroke-opacity="0.05" stroke="#000000"></path></g><g><path cs="100,100" d="M0.5,280.5 L6.5,280.5" fill="none" stroke-width="1" stroke-opacity="0.3" stroke="#000000" transform="translate(-6,0)"></path><path cs="100,100" d="M0.5,280.5 L0.5,280.5 L672.5,280.5" fill="none" stroke-width="1" stroke-opacity="0.05" stroke="#000000"></path></g><g><path cs="100,100" d="M0.5,249.5 L6.5,249.5" fill="none" stroke-width="1" stroke-opacity="0.3" stroke="#000000" transform="translate(-6,0)"></path><path cs="100,100" d="M0.5,249.5 L0.5,249.5 L672.5,249.5" fill="none" stroke-width="1" stroke-opacity="0.05" stroke="#000000"></path></g><g><path cs="100,100" d="M0.5,218.5 L6.5,218.5" fill="none" stroke-width="1" stroke-opacity="0.3" stroke="#000000" transform="translate(-6,0)"></path><path cs="100,100" d="M0.5,218.5 L0.5,218.5 L672.5,218.5" fill="none" stroke-width="1" stroke-opacity="0.05" stroke="#000000"></path></g><g><path cs="100,100" d="M0.5,187.5 L6.5,187.5" fill="none" stroke-width="1" stroke-opacity="0.3" stroke="#000000" transform="translate(-6,0)"></path><path cs="100,100" d="M0.5,187.5 L0.5,187.5 L672.5,187.5" fill="none" stroke-width="1" stroke-opacity="0.05" stroke="#000000"></path></g><g><path cs="100,100" d="M0.5,156.5 L6.5,156.5" fill="none" stroke-width="1" stroke-opacity="0.3" stroke="#000000" transform="translate(-6,0)"></path><path cs="100,100" d="M0.5,156.5 L0.5,156.5 L672.5,156.5" fill="none" stroke-width="1" stroke-opacity="0.05" stroke="#000000"></path></g><g><path cs="100,100" d="M0.5,124.5 L6.5,124.5" fill="none" stroke-width="1" stroke-opacity="0.3" stroke="#000000" transform="translate(-6,0)"></path><path cs="100,100" d="M0.5,124.5 L0.5,124.5 L672.5,124.5" fill="none" stroke-width="1" stroke-opacity="0.05" stroke="#000000"></path></g><g><path cs="100,100" d="M0.5,93.5 L6.5,93.5" fill="none" stroke-width="1" stroke-opacity="0.3" stroke="#000000" transform="translate(-6,0)"></path><path cs="100,100" d="M0.5,93.5 L0.5,93.5 L672.5,93.5" fill="none" stroke-width="1" stroke-opacity="0.05" stroke="#000000"></path></g><g><path cs="100,100" d="M0.5,62.5 L6.5,62.5" fill="none" stroke-width="1" stroke-opacity="0.3" stroke="#000000" transform="translate(-6,0)"></path><path cs="100,100" d="M0.5,62.5 L0.5,62.5 L672.5,62.5" fill="none" stroke-width="1" stroke-opacity="0.05" stroke="#000000"></path></g><g><path cs="100,100" d="M0.5,31.5 L6.5,31.5" fill="none" stroke-width="1" stroke-opacity="0.3" stroke="#000000" transform="translate(-6,0)"></path><path cs="100,100" d="M0.5,31.5 L0.5,31.5 L672.5,31.5" fill="none" stroke-width="1" stroke-opacity="0.05" stroke="#000000"></path></g><g><path cs="100,100" d="M0.5,0.5 L6.5,0.5" fill="none" stroke-width="1" stroke-opacity="0.3" stroke="#000000" transform="translate(-6,0)"></path><path cs="100,100" d="M0.5,0.5 L0.5,0.5 L672.5,0.5" fill="none" stroke-width="1" stroke-opacity="0.05" stroke="#000000"></path></g></g></g><g></g><g></g><g></g><g></g><g><g transform="translate(64,53)"><g><g transform="translate(11,311)" aria-label="graph 1 2011 10"><path cs="100,100" d="M0.5,0.5 L0.5,-30.5 L90.5,-30.5 L90.5,0.5 L0.5,0.5 Z" fill="url(#AmChartsEl-463)" stroke="#000000" fill-opacity="1" stroke-width="1" stroke-opacity="0.4"></path><pattern id="AmChartsEl-463" width="4" height="4" patternUnits="userSpaceOnUse" xlink:href="https://www.amcharts.com/lib/3/patterns/black/pattern1.png"><image x="0" y="0" width="4" height="4" xmlns:xlink="http://www.w3.org/1999/xlink" xlink:href="https://www.amcharts.com/lib/3/patterns/black/pattern1.png" transform="translate(0,0)"></image></pattern></g><g transform="translate(123,311)" aria-label="graph 1 2012 14"><path cs="100,100" d="M0.5,0.5 L0.5,-55.5 L90.5,-55.5 L90.5,0.5 L0.5,0.5 Z" fill="url(#AmChartsEl-464)" stroke="#000000" fill-opacity="1" stroke-width="1" stroke-opacity="0.4"></path><pattern id="AmChartsEl-464" width="4" height="4" patternUnits="userSpaceOnUse" xlink:href="https://www.amcharts.com/lib/3/patterns/black/pattern1.png"><image x="0" y="0" width="4" height="4" xmlns:xlink="http://www.w3.org/1999/xlink" xlink:href="https://www.amcharts.com/lib/3/patterns/black/pattern1.png" transform="translate(0,0)"></image></pattern></g><g transform="translate(235,311)" aria-label="graph 1 2013 22"><path cs="100,100" d="M0.5,0.5 L0.5,-105.5 L90.5,-105.5 L90.5,0.5 L0.5,0.5 Z" fill="url(#AmChartsEl-465)" stroke="#000000" fill-opacity="1" stroke-width="1" stroke-opacity="0.4"></path><pattern id="AmChartsEl-465" width="4" height="4" patternUnits="userSpaceOnUse" xlink:href="https://www.amcharts.com/lib/3/patterns/black/pattern1.png"><image x="0" y="0" width="4" height="4" xmlns:xlink="http://www.w3.org/1999/xlink" xlink:href="https://www.amcharts.com/lib/3/patterns/black/pattern1.png" transform="translate(0,0)"></image></pattern></g><g transform="translate(347,311)" aria-label="graph 1 2014 25"><path cs="100,100" d="M0.5,0.5 L0.5,-123.5 L90.5,-123.5 L90.5,0.5 L0.5,0.5 Z" fill="url(#AmChartsEl-466)" stroke="#000000" fill-opacity="1" stroke-width="1" stroke-opacity="0.4"></path><pattern id="AmChartsEl-466" width="4" height="4" patternUnits="userSpaceOnUse" xlink:href="https://www.amcharts.com/lib/3/patterns/black/pattern1.png"><image x="0" y="0" width="4" height="4" xmlns:xlink="http://www.w3.org/1999/xlink" xlink:href="https://www.amcharts.com/lib/3/patterns/black/pattern1.png" transform="translate(0,0)"></image></pattern></g><g transform="translate(459,311)" aria-label="graph 1 2015 32"><path cs="100,100" d="M0.5,0.5 L0.5,-167.5 L90.5,-167.5 L90.5,0.5 L0.5,0.5 Z" fill="url(#AmChartsEl-467)" stroke="#000000" fill-opacity="1" stroke-width="1" stroke-opacity="0.4"></path><pattern id="AmChartsEl-467" width="4" height="4" patternUnits="userSpaceOnUse" xlink:href="https://www.amcharts.com/lib/3/patterns/black/pattern1.png"><image x="0" y="0" width="4" height="4" xmlns:xlink="http://www.w3.org/1999/xlink" xlink:href="https://www.amcharts.com/lib/3/patterns/black/pattern1.png" transform="translate(0,0)"></image></pattern></g><g transform="translate(571,311)" aria-label="graph 1 2016 50"><path cs="100,100" d="M0.5,0.5 L0.5,-279.5 L90.5,-279.5 L90.5,0.5 L0.5,0.5 Z" fill="url(#AmChartsEl-468)" stroke="#000000" fill-opacity="1" stroke-width="1" stroke-opacity="0.4"></path><pattern id="AmChartsEl-468" width="4" height="4" patternUnits="userSpaceOnUse" xlink:href="https://www.amcharts.com/lib/3/patterns/black/pattern1.png"><image x="0" y="0" width="4" height="4" xmlns:xlink="http://www.w3.org/1999/xlink" xlink:href="https://www.amcharts.com/lib/3/patterns/black/pattern1.png" transform="translate(0,0)"></image></pattern></g></g></g></g><g></g><g><g><path cs="100,100" d="M0.5,0.5 L672.5,0.5" fill="none" stroke-width="1" stroke-opacity="0.3" stroke="#000000" transform="translate(64,364)"></path></g><g><path cs="100,100" d="M0.5,0.5 L0.5,311.5" fill="none" stroke-width="1" stroke-opacity="0.3" stroke="#000000" transform="translate(64,53)" visibility="visible"></path></g></g><g></g><g></g><g><g transform="translate(64,53)"></g></g><g><g></g><text y="8" fill="#000000" font-family="Verdana" font-size="15px" opacity="1" font-weight="bold" text-anchor="middle" transform="translate(401,20)" style="pointer-events: none;"><tspan y="8" x="0">Revenues from streaming</tspan></text></g><g><g transform="translate(64,53)" visibility="visible"><text y="6" fill="#000000" font-family="Verdana" font-size="11px" opacity="1" text-anchor="middle" transform="translate(56,328.5)"><tspan y="6" x="0">2011</tspan></text><text y="6" fill="#000000" font-family="Verdana" font-size="11px" opacity="1" text-anchor="middle" transform="translate(168,328.5)"><tspan y="6" x="0">2012</tspan></text><text y="6" fill="#000000" font-family="Verdana" font-size="11px" opacity="1" text-anchor="middle" transform="translate(280,328.5)"><tspan y="6" x="0">2013</tspan></text><text y="6" fill="#000000" font-family="Verdana" font-size="11px" opacity="1" text-anchor="middle" transform="translate(392,328.5)"><tspan y="6" x="0">2014</tspan></text><text y="6" fill="#000000" font-family="Verdana" font-size="11px" opacity="1" text-anchor="middle" transform="translate(504,328.5)"><tspan y="6" x="0">2015</tspan></text><text y="6" fill="#000000" font-family="Verdana" font-size="11px" opacity="1" text-anchor="middle" transform="translate(616,328.5)"><tspan y="6" x="0">2016</tspan></text></g><g transform="translate(64,53)" visibility="visible"><text y="6" fill="#000000" font-family="Verdana" font-size="11px" opacity="1" text-anchor="end" transform="translate(-12,309.75)"><tspan y="6" x="0">5</tspan></text><text y="6" fill="#000000" font-family="Verdana" font-size="11px" opacity="1" text-anchor="end" transform="translate(-12,278.75)"><tspan y="6" x="0">10</tspan></text><text y="6" fill="#000000" font-family="Verdana" font-size="11px" opacity="1" text-anchor="end" transform="translate(-12,247.75)"><tspan y="6" x="0">15</tspan></text><text y="6" fill="#000000" font-family="Verdana" font-size="11px" opacity="1" text-anchor="end" transform="translate(-12,216.75)"><tspan y="6" x="0">20</tspan></text><text y="6" fill="#000000" font-family="Verdana" font-size="11px" opacity="1" text-anchor="end" transform="translate(-12,185.75)"><tspan y="6" x="0">25</tspan></text><text y="6" fill="#000000" font-family="Verdana" font-size="11px" opacity="1" text-anchor="end" transform="translate(-12,154.75)"><tspan y="6" x="0">30</tspan></text><text y="6" fill="#000000" font-family="Verdana" font-size="11px" opacity="1" text-anchor="end" transform="translate(-12,122.75)"><tspan y="6" x="0">35</tspan></text><text y="6" fill="#000000" font-family="Verdana" font-size="11px" opacity="1" text-anchor="end" transform="translate(-12,91.75)"><tspan y="6" x="0">40</tspan></text><text y="6" fill="#000000" font-family="Verdana" font-size="11px" opacity="1" text-anchor="end" transform="translate(-12,60.75)"><tspan y="6" x="0">45</tspan></text><text y="6" fill="#000000" font-family="Verdana" font-size="11px" opacity="1" text-anchor="end" transform="translate(-12,29.75)"><tspan y="6" x="0">50</tspan></text><text y="6" fill="#000000" font-family="Verdana" font-size="11px" opacity="1" text-anchor="end" transform="translate(-12,-1.25)"><tspan y="6" x="0">55</tspan></text><text y="6" fill="#000000" font-family="Verdana" font-size="12px" opacity="1" font-weight="bold" text-anchor="middle" transform="translate(-43,156) rotate(-90)"><tspan y="6" x="0">Share of income, %</tspan></text></g></g><g></g><g transform="translate(64,53)"></g><g></g><g></g></svg>